<svg xmlns="http://www.w3.org/2000/svg" width="22" height="22" viewBox="0 0 22 22" fill="none">
<path fill-rule="evenodd" clip-rule="evenodd" d="M2.521 10.9999C2.521 6.317 6.31725 2.52075 11.0002 2.52075C12.3551 2.52075 13.6339 2.83805 14.7683 3.40176C15.1083 3.57074 15.5209 3.43208 15.6899 3.09206C15.8589 2.75203 15.7202 2.33941 15.3802 2.17043C14.06 1.51434 12.5721 1.14575 11.0002 1.14575C5.55786 1.14575 1.146 5.55761 1.146 10.9999C1.146 16.4422 5.55786 20.8541 11.0002 20.8541C16.4425 20.8541 20.8543 16.4422 20.8543 10.9999C20.8543 10.6304 20.834 10.2653 20.7942 9.90586C20.7525 9.52846 20.4127 9.25634 20.0353 9.29806C19.6579 9.33978 19.3858 9.67954 19.4275 10.0569C19.4617 10.3663 19.4793 10.6809 19.4793 10.9999C19.4793 15.6828 15.6831 19.4791 11.0002 19.4791C6.31725 19.4791 2.521 15.6828 2.521 10.9999ZM20.653 4.15272C20.9214 3.88424 20.9214 3.44894 20.653 3.18045C20.3845 2.91196 19.9492 2.91196 19.6807 3.18045L11.0002 11.861L8.7363 9.59712C8.46781 9.32863 8.03251 9.32863 7.76403 9.59712C7.49554 9.8656 7.49554 10.3009 7.76403 10.5694L10.514 13.3194C10.7825 13.5879 11.2178 13.5879 11.4863 13.3194L20.653 4.15272Z" fill="#505050"/>
</svg>