<svg xmlns="http://www.w3.org/2000/svg" width="18" height="15" viewBox="0 0 18 15" fill="none">
<path d="M9.09991 0.586914C13.2752 0.586914 16.749 3.59141 17.4776 7.5561C16.7498 11.5208 13.2752 14.5253 9.09991 14.5253C4.92459 14.5253 1.45084 11.5208 0.722168 7.5561C1.45006 3.59141 4.92459 0.586914 9.09991 0.586914ZM9.09991 12.9766C10.6792 12.9762 12.2116 12.4398 13.4462 11.4551C14.6809 10.4704 15.5448 9.09573 15.8964 7.5561C15.5435 6.0177 14.6791 4.64453 13.4445 3.66112C12.21 2.67771 10.6783 2.14223 9.09991 2.14223C7.52154 2.14223 5.98986 2.67771 4.7553 3.66112C3.52073 4.64453 2.65632 6.0177 2.3034 7.5561C2.65503 9.09573 3.51888 10.4704 4.75357 11.4551C5.98825 12.4398 7.52064 12.9762 9.09991 12.9766ZM9.09991 11.0407C8.17574 11.0407 7.28942 10.6736 6.63593 10.0201C5.98244 9.3666 5.61531 8.48028 5.61531 7.5561C5.61531 6.63193 5.98244 5.74561 6.63593 5.09212C7.28942 4.43863 8.17574 4.07151 9.09991 4.07151C10.0241 4.07151 10.9104 4.43863 11.5639 5.09212C12.2174 5.74561 12.5845 6.63193 12.5845 7.5561C12.5845 8.48028 12.2174 9.3666 11.5639 10.0201C10.9104 10.6736 10.0241 11.0407 9.09991 11.0407ZM9.09991 9.49199C9.61334 9.49199 10.1057 9.28803 10.4688 8.92498C10.8318 8.56193 11.0358 8.06953 11.0358 7.5561C11.0358 7.04267 10.8318 6.55027 10.4688 6.18722C10.1057 5.82418 9.61334 5.62022 9.09991 5.62022C8.58648 5.62022 8.09408 5.82418 7.73103 6.18722C7.36798 6.55027 7.16402 7.04267 7.16402 7.5561C7.16402 8.06953 7.36798 8.56193 7.73103 8.92498C8.09408 9.28803 8.58648 9.49199 9.09991 9.49199Z" fill="black"/>
</svg>