<svg xmlns="http://www.w3.org/2000/svg" width="10" height="13" viewBox="0 0 10 13" fill="none">
<rect width="9.08016" height="7.99054" fill="#FFE500"/>
<path d="M0 11.9854H9.08016" stroke="#FFE500" stroke-width="0.955806"/>
<path d="M4.54 11.6226L-8.2016e-05 7.99049L9.08008 7.99049L4.54 11.6226Z" fill="#FFE500"/>
<g clip-path="url(#clip0_16842_3147)">
<path d="M7.6419 3.64857C7.62978 3.61141 7.59765 3.58431 7.55895 3.57866L5.70199 3.30879L4.87153 1.62613C4.85429 1.59102 4.81857 1.56885 4.77956 1.56885C4.74055 1.56885 4.70473 1.59102 4.68758 1.62613L3.85703 3.3089L2.00006 3.57877C1.96136 3.58441 1.92933 3.61141 1.91712 3.64867C1.90511 3.68573 1.91506 3.72658 1.94309 3.75379L3.2869 5.06362L2.9696 6.9132C2.96303 6.95169 2.97884 6.9906 3.01036 7.01359C3.04208 7.03679 3.08406 7.03977 3.11845 7.02139L4.77956 6.14824L6.44046 7.02139C6.45545 7.0293 6.47198 7.0332 6.4883 7.0332C6.50955 7.0332 6.53069 7.02663 6.54866 7.01359C6.58027 6.9906 6.59608 6.95169 6.58941 6.9132L6.27222 5.06372L7.61603 3.75379C7.64395 3.72638 7.65401 3.68563 7.6419 3.64857Z" fill="#FF550D"/>
</g>
<defs>
<clipPath id="clip0_16842_3147">
<rect width="5.73484" height="5.73484" fill="white" transform="translate(1.91211 1.43359)"/>
</clipPath>
</defs>
</svg>