<svg width="30" height="30" viewBox="0 0 30 30" fill="none" xmlns="http://www.w3.org/2000/svg">
<g clip-path="url(#clip0_1898_558)">
<path d="M14.4311 0.000976562H15.2965C16.3646 0.522997 16.0864 1.80401 16.1173 2.77249C16.0555 3.31512 16.1929 4.01572 15.6915 4.3935C14.9909 5.07694 13.6858 4.44502 13.7957 3.46966C13.8198 2.30886 13.4282 0.862997 14.4311 0.000976562Z" fill="#737373"/>
<path d="M4.61571 3.92654C5.9448 3.63805 6.65227 5.14229 7.51086 5.88411C8.44157 6.67401 7.35631 8.27785 6.2848 7.7833C5.45369 7.26472 4.81833 6.48169 4.15551 5.77421C3.60258 5.21442 3.89106 4.18755 4.61571 3.92654Z" fill="#737373"/>
<path d="M24.5178 3.90916C25.4656 3.58976 26.3757 4.70592 25.8846 5.56795C25.2287 6.39219 24.4697 7.17178 23.6077 7.77966C22.6392 8.24673 21.5299 6.89704 22.2236 6.05906C22.9208 5.28633 23.618 4.42774 24.5178 3.90916Z" fill="#737373"/>
<path d="M3.28323 11.5472C7.15717 8.57994 11.9927 6.11408 17.0137 6.94176C22.0004 7.89994 26.3723 10.9187 29.8788 14.487V15.2666C28.7798 16.7434 27.2412 17.8115 25.7988 18.9276C22.0382 21.6339 17.3881 23.7975 12.6487 22.8977C7.75131 21.8846 3.45838 18.9104 0 15.3971V14.6141C0.879192 13.3846 2.12586 12.4951 3.28323 11.5472ZM13.1123 9.39045C10.3717 10.2525 8.56182 13.3193 9.22121 16.1321C9.77071 19.0513 12.8135 21.208 15.7499 20.7203C18.9782 20.3529 21.4166 16.9288 20.6507 13.7589C20.0703 10.4517 16.2788 8.22964 13.1123 9.39045ZM2.87111 14.9506C4.30323 16.2454 5.87273 17.3719 7.50404 18.3987C6.54929 16.2248 6.54586 13.6902 7.4903 11.5094C5.83838 12.4951 4.29293 13.6525 2.87111 14.9506ZM22.3679 11.4717C23.3329 13.6525 23.3329 16.1904 22.3885 18.3747C24.037 17.3822 25.5859 16.2282 27.0042 14.93C25.579 13.6284 23.9992 12.5088 22.3679 11.4717Z" fill="#737373"/>
<path d="M14.2319 11.5129C16.7733 10.8432 19.2667 13.7177 18.2226 16.1389C17.4671 18.5979 13.8748 19.2436 12.2847 17.2311C10.5263 15.3525 11.6871 11.9216 14.2319 11.5129ZM14.5135 13.8448C13.6584 14.147 13.5004 15.4658 14.3109 15.9191C14.9772 16.4034 16.0247 15.9123 16.0933 15.0983C16.2548 14.2501 15.3 13.5185 14.5135 13.8448Z" fill="#737373"/>
<path d="M6.2883 22.0942C7.24991 21.6511 8.3386 22.9768 7.6586 23.8148C7.04042 24.5738 6.32951 25.2572 5.57395 25.8822C4.61234 26.4489 3.42749 25.2469 4.00446 24.2956C4.67072 23.4816 5.41254 22.6849 6.2883 22.0942Z" fill="#737373"/>
<path d="M22.7868 22.1044C24.0335 21.7506 24.7307 23.2411 25.5583 23.9143C26.5749 24.6355 25.7163 26.3698 24.5212 25.9749C23.6523 25.5215 23.0478 24.6904 22.3747 24.0001C21.7393 23.4541 22.0175 22.3516 22.7868 22.1044Z" fill="#737373"/>
<path d="M13.8301 26.1431C13.9229 24.9308 15.9526 24.9136 16.0487 26.1363C16.0762 27.3795 16.4643 28.9078 15.4649 29.8797H14.5857C13.2772 29.1241 13.8611 27.3761 13.8301 26.1431Z" fill="#737373"/>
</g>
<defs>
<clipPath id="clip0_1898_558">
<rect width="29.8788" height="29.8788" fill="white"/>
</clipPath>
</defs>
</svg>
