<svg xmlns="http://www.w3.org/2000/svg" width="17" height="17" viewBox="0 0 17 17" fill="none">
<path d="M3.64648 3.41479H5.01166V5.16024C5.82396 4.52196 6.84824 4.14128 7.96144 4.14128C10.6003 4.14128 12.7396 6.28052 12.7396 8.91941C12.7396 11.5583 10.6003 13.6975 7.96144 13.6975C6.49354 13.6975 5.18024 13.0356 4.30374 11.994L5.40908 11.1852C6.03426 11.889 6.94607 12.3324 7.96144 12.3324C9.84636 12.3324 11.3744 10.8043 11.3744 8.91941C11.3744 7.03449 9.84636 5.50646 7.96144 5.50646C7.21957 5.50646 6.53299 5.74316 5.97309 6.14516L7.74203 6.14516V7.51034H3.64648V3.41479Z" fill="#F05757"/>
</svg>