<svg width="25" height="21" viewBox="0 0 25 21" fill="none" xmlns="http://www.w3.org/2000/svg">
<g id="#ffffffff">
<path id="Vector" d="M20.6411 0.599732C20.9456 0.313132 21.2651 -0.0809419 21.7427 0.0145912C22.4503 0.0504161 22.71 1.08337 22.1697 1.50133C21.074 2.65369 19.9157 3.74635 18.8051 4.88678C20.8471 6.34067 22.713 8.06923 24.1818 10.1112V10.565C23.3459 11.9144 22.1935 13.034 21.0322 14.0998C18.9484 15.9507 16.4854 17.524 13.703 18.0077C11.3893 18.4167 8.99504 17.8554 6.93212 16.7807C5.57674 18.0315 4.36765 19.4407 2.9675 20.6438C2.26891 21.1155 1.36135 20.1094 1.85692 19.4526C2.95854 18.1957 4.21838 17.0822 5.37374 15.8731C3.3347 14.4013 1.46285 12.6787 0 10.6247V10.1471C2.14651 7.19749 5.01847 4.64795 8.44274 3.29854C11.2938 2.15214 14.5927 2.52234 17.2646 3.97324C18.4021 2.85969 19.5186 1.72523 20.6411 0.599732ZM9.81304 4.66586C6.64254 5.62418 4.06314 7.90204 1.95544 10.3829C3.31978 11.9861 4.88114 13.4161 6.61865 14.6073C7.25455 14.0162 7.86655 13.3982 8.46662 12.7712C7.56801 11.2935 7.5292 9.3022 8.56215 7.88413C9.81304 6.00332 12.6044 5.49282 14.4613 6.77057C14.9718 6.28395 15.4764 5.79136 15.96 5.27787C14.0732 4.34642 11.8431 4.024 9.81304 4.66586ZM15.7212 7.97668C16.7004 9.5888 16.6257 11.8099 15.3331 13.228C13.9747 14.8401 11.464 15.1058 9.70557 13.9983C9.19208 14.4819 8.69948 14.9834 8.20689 15.485C10.028 16.3149 12.1178 16.712 14.0762 16.1567C17.387 15.285 20.0231 12.8966 22.2294 10.3829C20.8889 8.74393 19.2887 7.32586 17.5363 6.13767C16.9332 6.75266 16.3212 7.3587 15.7212 7.97668ZM9.90559 8.98276C9.3921 9.72911 9.43091 10.6874 9.73542 11.5054C10.8878 10.365 12.0252 9.21264 13.1836 8.07818C12.079 7.41841 10.5564 7.91399 9.90559 8.98276ZM10.9594 12.7802C11.9834 13.0907 13.2224 13.0071 13.9657 12.1563C14.742 11.4069 14.8046 10.2426 14.4942 9.26339C13.2522 10.368 12.1028 11.5741 10.9594 12.7802Z" fill="#737373"/>
</g>
</svg>
