<svg width="23" height="14" viewBox="0 0 23 14" fill="none" xmlns="http://www.w3.org/2000/svg">
<path d="M22 7C22 7 17.305 13 11.5 13C5.695 13 1 7 1 7C1 7 5.695 1 11.5 1C17.305 1 22 7 22 7ZM11.5 4C10.9067 4 10.3266 4.17595 9.83329 4.50559C9.33994 4.83524 8.95542 5.30377 8.72836 5.85195C8.5013 6.40013 8.44189 7.00333 8.55764 7.58527C8.6734 8.16721 8.95912 8.70176 9.37868 9.12132C9.79824 9.54088 10.3328 9.8266 10.9147 9.94236C11.4967 10.0581 12.0999 9.9987 12.648 9.77164C13.1962 9.54458 13.6648 9.16006 13.9944 8.66671C14.3241 8.17336 14.5 7.59334 14.5 7C14.5 6.20435 14.1839 5.44129 13.6213 4.87868C13.0587 4.31607 12.2956 4 11.5 4Z" stroke="black" stroke-width="2" stroke-linecap="round" stroke-linejoin="round"/>
</svg>
