<svg width="23" height="23" viewBox="0 0 23 23" fill="none" xmlns="http://www.w3.org/2000/svg">
<g id="public" clip-path="url(#clip0_15609_8447)">
<g id="#737373ff">
<path id="Vector" d="M10.6842 0.000976562H11.3249C12.1157 0.387462 11.9097 1.33588 11.9326 2.05291C11.8868 2.45465 11.9886 2.97336 11.6173 3.25305C11.0986 3.75904 10.1324 3.29119 10.2138 2.56907C10.2316 1.70965 9.94171 0.639186 10.6842 0.000976562Z" fill="#737373"/>
<path id="Vector_2" d="M3.41718 2.90772C4.40119 2.69413 4.92498 3.80782 5.56065 4.35704C6.24971 4.94185 5.44623 6.12928 4.65292 5.76313C4.03759 5.37919 3.5672 4.79946 3.07646 4.27567C2.66709 3.86122 2.88068 3.10096 3.41718 2.90772Z" fill="#737373"/>
<path id="Vector_3" d="M18.152 2.89489C18.8537 2.65842 19.5276 3.48479 19.164 4.123C18.6783 4.73324 18.1164 5.31043 17.4782 5.76048C16.7611 6.10628 15.9398 5.10701 16.4535 4.4866C16.9696 3.9145 17.4858 3.27883 18.152 2.89489Z" fill="#737373"/>
<path id="Vector_4" d="M2.43079 8.54921C5.29892 6.35235 8.879 4.52671 12.5964 5.1395C16.2883 5.8489 19.5251 8.08391 22.1212 10.7257V11.3029C21.3076 12.3963 20.1684 13.187 19.1005 14.0134C16.3163 16.017 12.8735 17.6189 9.36465 16.9527C5.7388 16.2026 2.56047 14.0007 0 11.3995V10.8198C0.650923 9.90954 1.57391 9.25099 2.43079 8.54921ZM9.70791 6.95242C7.67886 7.59063 6.33887 9.86123 6.82706 11.9437C7.23389 14.1049 9.48669 15.7017 11.6607 15.3407C14.0508 15.0686 15.8561 12.5336 15.2891 10.1867C14.8594 7.7381 12.0522 6.093 9.70791 6.95242ZM2.12567 11.069C3.18596 12.0276 4.34796 12.8616 5.55573 13.6218C4.84887 12.0123 4.84632 10.1358 5.54556 8.52124C4.32254 9.25099 3.17833 10.1079 2.12567 11.069ZM16.5604 8.49328C17.2749 10.1079 17.2749 11.9869 16.5757 13.604C17.7961 12.8692 18.9429 12.0149 19.993 11.0537C18.9378 10.0901 17.7682 9.26116 16.5604 8.49328Z" fill="#737373"/>
<path id="Vector_5" d="M10.5367 8.52416C12.4183 8.02834 14.2643 10.1565 13.4913 11.9491C12.9319 13.7697 10.2723 14.2477 9.09502 12.7577C7.79318 11.3669 8.6526 8.82673 10.5367 8.52416ZM10.7452 10.2506C10.1121 10.4744 9.99513 11.4508 10.5952 11.7864C11.0885 12.1449 11.864 11.7813 11.9148 11.1787C12.0343 10.5507 11.3275 10.0091 10.7452 10.2506Z" fill="#737373"/>
<path id="Vector_6" d="M4.6554 16.3583C5.36735 16.0303 6.17337 17.0118 5.66992 17.6322C5.21224 18.1941 4.68591 18.7001 4.12653 19.1629C3.41458 19.5824 2.53736 18.6925 2.96453 17.9882C3.4578 17.3856 4.00702 16.7957 4.6554 16.3583Z" fill="#737373"/>
<path id="Vector_7" d="M16.8705 16.3658C17.7935 16.1039 18.3096 17.2074 18.9224 17.7058C19.675 18.2397 19.0394 19.5238 18.1545 19.2314C17.5112 18.8957 17.0637 18.2804 16.5654 17.7693C16.095 17.3651 16.3009 16.5489 16.8705 16.3658Z" fill="#737373"/>
<path id="Vector_8" d="M10.2393 19.3553C10.3079 18.4578 11.8107 18.4451 11.8819 19.3503C11.9022 20.2707 12.1895 21.4022 11.4496 22.1218H10.7987C9.82992 21.5624 10.2622 20.2682 10.2393 19.3553Z" fill="#737373"/>
</g>
</g>
<defs>
<clipPath id="clip0_15609_8447">
<rect width="22.1212" height="22.1212" fill="white"/>
</clipPath>
</defs>
</svg>
