<svg width="16" height="17" viewBox="0 0 16 17" fill="none" xmlns="http://www.w3.org/2000/svg">
<path fill-rule="evenodd" clip-rule="evenodd" d="M5.11144 15.1673H10.8892C13.1494 15.1673 14.6673 13.5819 14.6673 11.2228V5.77847C14.6673 3.41939 13.1494 1.83398 10.8899 1.83398H5.11144C2.85191 1.83398 1.33398 3.41939 1.33398 5.77847V11.2228C1.33398 13.5819 2.85191 15.1673 5.11144 15.1673ZM5.66688 7.83398C4.74779 7.83398 4.00098 7.08616 4.00098 6.16732C4.00098 5.24847 4.74779 4.50065 5.66688 4.50065C6.58531 4.50065 7.33279 5.24847 7.33279 6.16732C7.33279 7.08616 6.58531 7.83398 5.66688 7.83398ZM13.2149 10.4564C13.4381 11.0288 13.3221 11.7168 13.0835 12.2837C12.8006 12.9579 12.2589 13.4684 11.5764 13.6913C11.2734 13.7904 10.9557 13.8337 10.6386 13.8337H5.02007C4.46097 13.8337 3.96623 13.6996 3.56065 13.4498C3.30657 13.293 3.26165 12.9311 3.45003 12.6965C3.76511 12.3043 4.07617 11.9108 4.38991 11.5138C4.9879 10.7543 5.3908 10.5341 5.83861 10.7274C6.02029 10.8072 6.20263 10.9269 6.39034 11.0535C6.89045 11.3934 7.58563 11.8606 8.50138 11.3535C9.12804 11.0025 9.49151 10.4005 9.80803 9.8762L9.81332 9.86743C9.83568 9.83077 9.85784 9.79411 9.87994 9.75754L9.88015 9.75719C9.98652 9.58119 10.0915 9.40754 10.2102 9.24755C10.359 9.04734 10.9107 8.42127 11.6254 8.86709C12.0806 9.14779 12.4634 9.52756 12.873 9.93417C13.0292 10.0897 13.1404 10.2665 13.2149 10.4564Z" fill="white"/>
</svg>
