<svg width="16" height="17" viewBox="0 0 16 17" fill="none" xmlns="http://www.w3.org/2000/svg">
<path d="M7.69991 13.4844H7.19991C7.09991 13.4844 6.8999 13.5844 6.8999 13.7844C6.8999 13.8844 6.99991 14.0844 7.19991 14.0844H7.69991C7.79991 14.0844 7.9999 13.9844 7.9999 13.7844C7.9999 13.5844 7.89991 13.4844 7.69991 13.4844Z" fill="#FF7900"/>
<path d="M15.2 13.4844H8.8C8.7 13.4844 8.5 13.5844 8.5 13.7844C8.5 13.8844 8.6 14.0844 8.8 14.0844H15.2C15.3 14.0844 15.5 13.9844 15.5 13.7844C15.5 13.5844 15.3 13.4844 15.2 13.4844Z" fill="#FFA600"/>
<path d="M7.69991 11.8843H7.19991C7.09991 11.8843 6.8999 11.9843 6.8999 12.1843C6.8999 12.2843 6.99991 12.4843 7.19991 12.4843H7.69991C7.79991 12.4843 7.9999 12.3843 7.9999 12.1843C7.9999 11.9843 7.89991 11.8843 7.69991 11.8843Z" fill="#FF7900"/>
<path d="M15.2 11.8843H8.8C8.7 11.8843 8.5 11.9843 8.5 12.1843C8.5 12.2843 8.6 12.4843 8.8 12.4843H15.2C15.3 12.4843 15.5 12.3843 15.5 12.1843C15.5 11.9843 15.3 11.8843 15.2 11.8843Z" fill="#FFA600"/>
<path d="M7.69991 10.2842H7.19991C7.09991 10.2842 6.8999 10.3842 6.8999 10.5842C6.8999 10.7842 6.99991 10.8842 7.19991 10.8842H7.69991C7.79991 10.8842 7.9999 10.7842 7.9999 10.5842C7.9999 10.3842 7.89991 10.2842 7.69991 10.2842Z" fill="#FF7900"/>
<path d="M15.2 10.2842H8.8C8.7 10.2842 8.5 10.3842 8.5 10.5842C8.5 10.7842 8.6 10.8842 8.8 10.8842H15.2C15.3 10.8842 15.5 10.7842 15.5 10.5842C15.5 10.3842 15.3 10.2842 15.2 10.2842Z" fill="#FFA600"/>
<path d="M7.69991 8.68457H7.19991C7.09991 8.68457 6.8999 8.78456 6.8999 8.98456C6.8999 9.18456 6.99991 9.28458 7.19991 9.28458H7.69991C7.79991 9.28458 7.9999 9.18456 7.9999 8.98456C7.9999 8.78456 7.89991 8.68457 7.69991 8.68457Z" fill="#FF7900"/>
<path d="M15.2 8.68457H8.8C8.7 8.68457 8.5 8.78456 8.5 8.98456C8.5 9.18456 8.6 9.28458 8.8 9.28458H15.2C15.3 9.28458 15.5 9.18456 15.5 8.98456C15.5 8.78456 15.3 8.68457 15.2 8.68457Z" fill="#FFA600"/>
<path d="M7.69991 7.08447H7.19991C7.09991 7.08447 6.8999 7.18449 6.8999 7.38449C6.8999 7.58449 6.99991 7.68448 7.19991 7.68448H7.69991C7.79991 7.68448 7.9999 7.58449 7.9999 7.38449C7.9999 7.18449 7.89991 7.08447 7.69991 7.08447Z" fill="#FF7900"/>
<path d="M15.2 7.08447H8.8C8.7 7.08447 8.5 7.18449 8.5 7.38449C8.5 7.58449 8.6 7.68448 8.8 7.68448H15.2C15.3 7.68448 15.5 7.58449 15.5 7.38449C15.5 7.18449 15.3 7.08447 15.2 7.08447Z" fill="#FFA600"/>
<path d="M13.3 4C13.3 3.9 13.2 3.90002 13.2 3.80002L9.5 0.100006C9.5 0.100006 9.5 0.1 9.4 0C9.4 0 9.4 0 9.3 0H1.9C1.8 0 1.6 0.100018 1.6 0.300018V1.10001H0.299995C0.199995 1.10001 0 1.20002 0 1.40002V15.8C0 15.9 0.0999954 16.1 0.299995 16.1H11.5C11.6 16.1 11.8 16 11.8 15.8V14.5H13.1C13.2 14.5 13.4 14.4 13.4 14.2L13.3 4ZM9.6 1L12.4 3.80002H9.6V1ZM11.2 15.5H0.599998V1.70001H1.6V14.2C1.6 14.3 1.7 14.5 1.9 14.5H11.2V15.5ZM12.8 13.9H2.2V0.600006H9.1V4.10001C9.1 4.20001 9.2 4.40002 9.4 4.40002H12.9V13.9H12.8Z" fill="#FF7900"/>
<path d="M8.7999 4.48438H7.19991C7.09991 4.48438 6.8999 4.58439 6.8999 4.78439V6.3844C6.8999 6.4844 6.99991 6.68439 7.19991 6.68439H8.7999C8.8999 6.68439 9.09991 6.5844 9.09991 6.3844V4.68439C9.09991 4.58439 8.9999 4.48438 8.7999 4.48438ZM8.4999 6.08438H7.3999V4.98438H8.4999V6.08438Z" fill="#FFA600"/>
</svg>
