<svg width="22" height="24" viewBox="0 0 22 24" fill="none" xmlns="http://www.w3.org/2000/svg">
<g id="menu 1">
<path id="Vector" d="M21.0833 12.9795H0.916667C0.410665 12.9795 0 12.5315 0 11.9795C0 11.4275 0.410665 10.9795 0.916667 10.9795H21.0833C21.5893 10.9795 22 11.4275 22 11.9795C22 12.5315 21.5893 12.9795 21.0833 12.9795Z" fill="#999999"/>
<path id="Vector_2" d="M21.0833 5.3125H0.916667C0.410665 5.3125 0 4.8645 0 4.3125C0 3.7605 0.410665 3.3125 0.916667 3.3125H21.0833C21.5893 3.3125 22 3.7605 22 4.3125C22 4.8645 21.5893 5.3125 21.0833 5.3125Z" fill="#999999"/>
<path id="Vector_3" d="M21.0833 20.6455H0.916667C0.410665 20.6455 0 20.1975 0 19.6455C0 19.0935 0.410665 18.6455 0.916667 18.6455H21.0833C21.5893 18.6455 22 19.0935 22 19.6455C22 20.1975 21.5893 20.6455 21.0833 20.6455Z" fill="#999999"/>
</g>
</svg>
