<svg width="67" height="67" viewBox="0 0 67 67" fill="none" xmlns="http://www.w3.org/2000/svg">
<g filter="url(#filter0_d_618_3989)">
<circle cx="33.5" cy="29.5" r="28.5" stroke="#EE7600" stroke-width="2" stroke-dasharray="8 8"/>
<circle cx="34" cy="30" r="23" fill="#EE7600"/>
<path d="M31.4596 12.3173C31.805 12.0271 32.4283 12.2519 32.4794 12.7076C32.5407 13.4658 32.5428 14.2343 32.4753 14.9925C32.3834 15.6159 31.3983 15.6567 31.2287 15.0559C31.1551 14.4468 31.1817 13.8296 31.1857 13.2165C31.2021 12.9059 31.1571 12.5135 31.4596 12.3173Z" fill="white"/>
<path d="M26.971 13.56C27.3103 13.3883 27.6455 13.6274 27.8723 13.8686C28.324 14.3305 28.8329 14.7494 29.1946 15.291C29.401 15.8428 28.6673 16.4192 28.2034 16.0329C27.672 15.5894 27.1856 15.0907 26.7299 14.5716C26.4254 14.2692 26.5848 13.7092 26.971 13.56Z" fill="white"/>
<path d="M36.1908 13.5719C36.7058 13.2837 37.3557 13.9234 37.0635 14.4466C36.5791 15.0434 36.0232 15.5932 35.4305 16.0816C34.8992 16.3984 34.2166 15.6913 34.5701 15.1824C35.0565 14.5999 35.5981 14.0481 36.1908 13.5719Z" fill="white"/>
<path d="M29.2167 18.7733C29.2024 17.3222 30.5512 16.0346 32.0043 16.1511C33.343 16.1961 34.5059 17.408 34.4793 18.7508C34.4956 20.8476 34.4916 22.9466 34.4773 25.0434C35.1742 24.7471 35.9733 24.5795 36.6988 24.882C37.4427 25.1252 37.9577 25.7567 38.297 26.4352C38.9919 26.096 39.7971 25.8895 40.5512 26.1634C41.3442 26.3862 41.9001 27.0463 42.2598 27.7555C43.1223 27.2813 44.2238 27.1914 45.0781 27.735C45.8629 28.201 46.3616 29.0921 46.3473 30.0036C46.3595 32.4499 46.3595 34.8963 46.3473 37.3406C46.3289 39.8912 45.3479 42.4152 43.6332 44.3036C41.6855 46.4843 38.7977 47.7861 35.8711 47.7861C32.3661 47.7453 28.951 45.8323 27.0748 42.873C25.3949 40.1344 23.6884 37.4101 22.0023 34.6756C21.5976 34.0624 21.5567 33.2327 21.9491 32.6032C22.8566 31.3688 24.5447 30.6085 26.0407 31.1849C27.455 31.7142 28.1805 33.155 29.2105 34.1667C29.2187 29.0369 29.2024 23.9051 29.2167 18.7733ZM31.2584 17.5899C30.7617 17.8434 30.5001 18.4033 30.5328 18.947C30.5206 24.6102 30.5512 30.2754 30.5185 35.9386C30.5594 36.4679 29.8196 36.8154 29.4537 36.4148C28.3113 35.2417 27.3303 33.9153 26.1736 32.7585C25.2253 31.9124 23.7252 32.3702 23.063 33.343C22.9179 33.6537 23.1529 33.9378 23.2878 34.1994C24.9023 36.8092 26.5128 39.4232 28.109 42.0432C29.4517 44.2198 31.7264 45.7874 34.234 46.2881C37.2629 46.9339 40.539 45.7506 42.6052 43.4759C44.1768 41.7775 45.0515 39.4702 45.0311 37.1567C45.0188 34.7062 45.0699 32.2537 45.0086 29.8053C44.935 28.7344 43.4145 28.2807 42.7421 29.1023C42.0145 30.022 42.6685 31.3136 42.2864 32.3375C42.0186 32.7994 41.2195 32.687 41.1153 32.1577C40.962 30.8415 41.2277 29.4926 40.9845 28.1867C40.6207 27.0994 38.9019 27.1015 38.5341 28.1867C38.297 29.4926 38.5586 30.8395 38.4074 32.1556C38.2786 32.8403 37.1321 32.7401 37.1423 32.0371C37.0789 30.4696 37.1648 28.9 37.1137 27.3324C37.1321 26.658 36.5435 26.0592 35.8752 26.0387C35.2293 25.9897 34.5774 26.4965 34.514 27.1505C34.4098 28.8427 34.5794 30.5452 34.4384 32.2353C34.2157 32.8362 33.1979 32.7074 33.1897 32.0534C33.1304 27.6185 33.1979 23.1775 33.159 18.7406C33.1979 17.8107 32.0656 17.1076 31.2584 17.5899Z" fill="white"/>
<path d="M24.9067 17.5656C25.6792 17.3673 26.509 17.4756 27.302 17.4879C27.9744 17.4777 28.1052 18.5322 27.4859 18.7387C26.6745 18.8306 25.8509 18.8163 25.0395 18.7489C24.5286 18.5997 24.4346 17.8251 24.9067 17.5656Z" fill="white"/>
<path d="M36.1357 17.5492C36.9205 17.3877 37.7421 17.4613 38.5391 17.494C39.1747 17.5062 39.2973 18.4872 38.7312 18.7243C37.9239 18.8408 37.0983 18.8102 36.2869 18.7529C35.7269 18.6507 35.6309 17.7965 36.1357 17.5492Z" fill="white"/>
</g>
<defs>
<filter id="filter0_d_618_3989" x="0" y="0" width="67" height="67" filterUnits="userSpaceOnUse" color-interpolation-filters="sRGB">
<feFlood flood-opacity="0" result="BackgroundImageFix"/>
<feColorMatrix in="SourceAlpha" type="matrix" values="0 0 0 0 0 0 0 0 0 0 0 0 0 0 0 0 0 0 127 0" result="hardAlpha"/>
<feOffset dy="4"/>
<feGaussianBlur stdDeviation="2"/>
<feComposite in2="hardAlpha" operator="out"/>
<feColorMatrix type="matrix" values="0 0 0 0 0 0 0 0 0 0 0 0 0 0 0 0 0 0 0.25 0"/>
<feBlend mode="normal" in2="BackgroundImageFix" result="effect1_dropShadow_618_3989"/>
<feBlend mode="normal" in="SourceGraphic" in2="effect1_dropShadow_618_3989" result="shape"/>
</filter>
</defs>
</svg>
