<svg width="59" height="59" viewBox="0 0 59 59" fill="none" xmlns="http://www.w3.org/2000/svg">
<circle cx="29.5" cy="29.5" r="28.5" stroke="#EE7600" stroke-width="2" stroke-dasharray="8 8"/>
<circle cx="30" cy="30" r="23" fill="#EE7600"/>
<path d="M27.4596 12.3173C27.805 12.0271 28.4283 12.2519 28.4794 12.7076C28.5407 13.4658 28.5428 14.2343 28.4753 14.9925C28.3834 15.6159 27.3983 15.6567 27.2287 15.0559C27.1551 14.4468 27.1817 13.8296 27.1857 13.2165C27.2021 12.9059 27.1571 12.5135 27.4596 12.3173Z" fill="white"/>
<path d="M22.971 13.56C23.3103 13.3883 23.6455 13.6274 23.8723 13.8686C24.324 14.3305 24.8329 14.7494 25.1946 15.291C25.401 15.8428 24.6673 16.4192 24.2034 16.0329C23.672 15.5894 23.1856 15.0907 22.7299 14.5716C22.4254 14.2692 22.5848 13.7092 22.971 13.56Z" fill="white"/>
<path d="M32.1908 13.5719C32.7058 13.2837 33.3557 13.9234 33.0635 14.4466C32.5791 15.0434 32.0232 15.5932 31.4305 16.0816C30.8992 16.3984 30.2166 15.6913 30.5701 15.1824C31.0565 14.5999 31.5981 14.0481 32.1908 13.5719Z" fill="white"/>
<path d="M25.2167 18.7733C25.2024 17.3222 26.5512 16.0346 28.0043 16.1511C29.343 16.1961 30.5059 17.408 30.4793 18.7508C30.4956 20.8476 30.4916 22.9466 30.4773 25.0434C31.1742 24.7471 31.9733 24.5795 32.6988 24.882C33.4427 25.1252 33.9577 25.7567 34.297 26.4352C34.9919 26.096 35.7971 25.8895 36.5512 26.1634C37.3442 26.3862 37.9001 27.0463 38.2598 27.7555C39.1223 27.2813 40.2238 27.1914 41.0781 27.735C41.8629 28.201 42.3616 29.0921 42.3473 30.0036C42.3595 32.4499 42.3595 34.8963 42.3473 37.3406C42.3289 39.8912 41.3479 42.4152 39.6332 44.3036C37.6855 46.4843 34.7977 47.7861 31.8711 47.7861C28.3661 47.7453 24.951 45.8323 23.0748 42.873C21.3949 40.1344 19.6884 37.4101 18.0023 34.6756C17.5976 34.0624 17.5567 33.2327 17.9491 32.6032C18.8566 31.3688 20.5447 30.6085 22.0407 31.1849C23.455 31.7142 24.1805 33.155 25.2105 34.1667C25.2187 29.0369 25.2024 23.9051 25.2167 18.7733ZM27.2584 17.5899C26.7617 17.8434 26.5001 18.4033 26.5328 18.947C26.5206 24.6102 26.5512 30.2754 26.5185 35.9386C26.5594 36.4679 25.8196 36.8154 25.4537 36.4148C24.3113 35.2417 23.3303 33.9153 22.1736 32.7585C21.2253 31.9124 19.7252 32.3702 19.063 33.343C18.9179 33.6537 19.1529 33.9378 19.2878 34.1994C20.9023 36.8092 22.5128 39.4232 24.109 42.0432C25.4517 44.2198 27.7264 45.7874 30.234 46.2881C33.2629 46.9339 36.539 45.7506 38.6052 43.4759C40.1768 41.7775 41.0515 39.4702 41.0311 37.1567C41.0188 34.7062 41.0699 32.2537 41.0086 29.8053C40.935 28.7344 39.4145 28.2807 38.7421 29.1023C38.0145 30.022 38.6685 31.3136 38.2864 32.3375C38.0186 32.7994 37.2195 32.687 37.1153 32.1577C36.962 30.8415 37.2277 29.4926 36.9845 28.1867C36.6207 27.0994 34.9019 27.1015 34.5341 28.1867C34.297 29.4926 34.5586 30.8395 34.4074 32.1556C34.2786 32.8403 33.1321 32.7401 33.1423 32.0371C33.0789 30.4696 33.1648 28.9 33.1137 27.3324C33.1321 26.658 32.5435 26.0592 31.8752 26.0387C31.2293 25.9897 30.5774 26.4965 30.514 27.1505C30.4098 28.8427 30.5794 30.5452 30.4384 32.2353C30.2157 32.8362 29.1979 32.7074 29.1897 32.0534C29.1304 27.6185 29.1979 23.1775 29.159 18.7406C29.1979 17.8107 28.0656 17.1076 27.2584 17.5899Z" fill="white"/>
<path d="M20.9067 17.5656C21.6792 17.3673 22.509 17.4756 23.302 17.4879C23.9744 17.4777 24.1052 18.5322 23.4859 18.7387C22.6745 18.8306 21.8509 18.8163 21.0395 18.7489C20.5286 18.5997 20.4346 17.8251 20.9067 17.5656Z" fill="white"/>
<path d="M32.1357 17.5492C32.9205 17.3877 33.7421 17.4613 34.5391 17.494C35.1747 17.5062 35.2973 18.4872 34.7312 18.7243C33.9239 18.8408 33.0983 18.8102 32.2869 18.7529C31.7269 18.6507 31.6309 17.7965 32.1357 17.5492Z" fill="white"/>
</svg>
